<svg width="76" height="77" viewBox="0 0 76 77" fill="none" xmlns="http://www.w3.org/2000/svg">
<rect y="0.179688" width="76" height="76" rx="38" fill="white"/>
<g clip-path="url(#clip0_142_154)">
<path d="M38 21.7812C43.3438 21.7812 43.9766 21.8047 46.0781 21.8984C48.0313 21.9844 49.0859 22.3125 49.7891 22.5859C50.7188 22.9453 51.3906 23.3828 52.0859 24.0781C52.7891 24.7813 53.2188 25.4453 53.5781 26.375C53.8516 27.0781 54.1797 28.1406 54.2656 30.0859C54.3594 32.1953 54.3828 32.8281 54.3828 38.1641C54.3828 43.5078 54.3594 44.1406 54.2656 46.2422C54.1797 48.1953 53.8516 49.25 53.5781 49.9531C53.2188 50.8828 52.7813 51.5547 52.0859 52.25C51.3828 52.9531 50.7188 53.3828 49.7891 53.7422C49.0859 54.0156 48.0234 54.3438 46.0781 54.4297C43.9688 54.5234 43.3359 54.5469 38 54.5469C32.6563 54.5469 32.0234 54.5234 29.9219 54.4297C27.9688 54.3438 26.9141 54.0156 26.2109 53.7422C25.2813 53.3828 24.6094 52.9453 23.9141 52.25C23.2109 51.5469 22.7813 50.8828 22.4219 49.9531C22.1484 49.25 21.8203 48.1875 21.7344 46.2422C21.6406 44.1328 21.6172 43.5 21.6172 38.1641C21.6172 32.8203 21.6406 32.1875 21.7344 30.0859C21.8203 28.1328 22.1484 27.0781 22.4219 26.375C22.7813 25.4453 23.2188 24.7734 23.9141 24.0781C24.6172 23.375 25.2813 22.9453 26.2109 22.5859C26.9141 22.3125 27.9766 21.9844 29.9219 21.8984C32.0234 21.8047 32.6563 21.7812 38 21.7812ZM38 18.1797C32.5703 18.1797 31.8906 18.2031 29.7578 18.2969C27.6328 18.3906 26.1719 18.7344 24.9063 19.2266C23.5859 19.7422 22.4688 20.4219 21.3594 21.5391C20.2422 22.6484 19.5625 23.7656 19.0469 25.0781C18.5547 26.3516 18.2109 27.8047 18.1172 29.9297C18.0234 32.0703 18 32.75 18 38.1797C18 43.6094 18.0234 44.2891 18.1172 46.4219C18.2109 48.5469 18.5547 50.0078 19.0469 51.2734C19.5625 52.5938 20.2422 53.7109 21.3594 54.8203C22.4688 55.9297 23.5859 56.6172 24.8984 57.125C26.1719 57.6172 27.625 57.9609 29.75 58.0547C31.8828 58.1484 32.5625 58.1719 37.9922 58.1719C43.4219 58.1719 44.1016 58.1484 46.2344 58.0547C48.3594 57.9609 49.8203 57.6172 51.0859 57.125C52.3984 56.6172 53.5156 55.9297 54.625 54.8203C55.7344 53.7109 56.4219 52.5938 56.9297 51.2813C57.4219 50.0078 57.7656 48.5547 57.8594 46.4297C57.9531 44.2969 57.9766 43.6172 57.9766 38.1875C57.9766 32.7578 57.9531 32.0781 57.8594 29.9453C57.7656 27.8203 57.4219 26.3594 56.9297 25.0938C56.4375 23.7656 55.7578 22.6484 54.6406 21.5391C53.5313 20.4297 52.4141 19.7422 51.1016 19.2344C49.8281 18.7422 48.375 18.3984 46.25 18.3047C44.1094 18.2031 43.4297 18.1797 38 18.1797Z" fill="url(#paint0_linear_142_154)"/>
<path d="M38 27.9062C32.3281 27.9062 27.7266 32.5078 27.7266 38.1797C27.7266 43.8516 32.3281 48.4531 38 48.4531C43.6719 48.4531 48.2734 43.8516 48.2734 38.1797C48.2734 32.5078 43.6719 27.9062 38 27.9062ZM38 44.8437C34.3203 44.8437 31.3359 41.8594 31.3359 38.1797C31.3359 34.5 34.3203 31.5156 38 31.5156C41.6797 31.5156 44.6641 34.5 44.6641 38.1797C44.6641 41.8594 41.6797 44.8437 38 44.8437Z" fill="url(#paint1_linear_142_154)"/>
<path d="M51.0781 27.5C51.0781 28.8281 50 29.8984 48.6797 29.8984C47.3516 29.8984 46.2812 28.8203 46.2812 27.5C46.2812 26.1719 47.3594 25.1016 48.6797 25.1016C50 25.1016 51.0781 26.1797 51.0781 27.5Z" fill="url(#paint2_linear_142_154)"/>
</g>
<defs>
<linearGradient id="paint0_linear_142_154" x1="37.9883" y1="58.0555" x2="37.9883" y2="18.4903" gradientUnits="userSpaceOnUse">
<stop stop-color="#E09B3D"/>
<stop offset="0.3" stop-color="#C74C4D"/>
<stop offset="0.6" stop-color="#C21975"/>
<stop offset="1" stop-color="#7024C4"/>
</linearGradient>
<linearGradient id="paint1_linear_142_154" x1="38" y1="48.3933" x2="38" y2="28.0658" gradientUnits="userSpaceOnUse">
<stop stop-color="#E09B3D"/>
<stop offset="0.3" stop-color="#C74C4D"/>
<stop offset="0.6" stop-color="#C21975"/>
<stop offset="1" stop-color="#7024C4"/>
</linearGradient>
<linearGradient id="paint2_linear_142_154" x1="48.6797" y1="29.8845" x2="48.6797" y2="25.1388" gradientUnits="userSpaceOnUse">
<stop stop-color="#E09B3D"/>
<stop offset="0.3" stop-color="#C74C4D"/>
<stop offset="0.6" stop-color="#C21975"/>
<stop offset="1" stop-color="#7024C4"/>
</linearGradient>
<clipPath id="clip0_142_154">
<rect width="40" height="40" fill="white" transform="translate(18 18.1797)"/>
</clipPath>
</defs>
</svg>
