<svg width="76" height="77" viewBox="0 0 76 77" fill="none" xmlns="http://www.w3.org/2000/svg">
<rect y="0.179688" width="76" height="76" rx="38" fill="white"/>
<path d="M30.5792 54.4308C45.6736 54.4308 53.9296 41.9252 53.9296 31.0804C53.9296 30.7252 53.9296 30.3716 53.9056 30.0196C55.5117 28.8579 56.8982 27.4194 58 25.7716C56.5023 26.4356 54.9134 26.8709 53.2864 27.0628C54.9997 26.0373 56.2819 24.4241 56.8944 22.5236C55.2835 23.4796 53.5211 24.1533 51.6832 24.5156C50.4459 23.1999 48.8094 22.3287 47.027 22.0367C45.2446 21.7448 43.4157 22.0484 41.8233 22.9007C40.2309 23.7529 38.9637 25.1062 38.2179 26.7512C37.4721 28.3961 37.2892 30.241 37.6976 32.0004C34.4348 31.8367 31.2429 30.9888 28.3291 29.5116C25.4153 28.0344 22.8446 25.961 20.784 23.426C19.7345 25.2327 19.4131 27.3714 19.8852 29.4067C20.3572 31.442 21.5872 33.2209 23.3248 34.3812C22.0187 34.3429 20.7411 33.9906 19.6 33.354V33.458C19.6005 35.3527 20.2564 37.189 21.4565 38.6553C22.6565 40.1216 24.3268 41.1276 26.184 41.5028C24.9758 41.8324 23.7081 41.8805 22.4784 41.6436C23.003 43.2741 24.024 44.7 25.3987 45.7218C26.7734 46.7437 28.433 47.3104 30.1456 47.3428C28.4441 48.6803 26.4955 49.6691 24.4115 50.2528C22.3274 50.8365 20.1487 51.0035 18 50.7444C21.7531 53.1528 26.1199 54.4303 30.5792 54.4244" fill="#1DA1F2"/>
</svg>
